PathFileType	4	(X/Y/Z)	/home/nbianco/projects/addbio/data/HamnerRunning2013/Processed/subject11//results/MarkerData/run300.trc
DataRate	CameraRate	NumFrames	NumMarkers	Units	OrigDataRate	OrigDataStartFrame	OrigNumFrames
100	100	9	42	m	100	0	203
Frame#	Time	C7			CLAV			LACR			LASI			LCAL			LFAradius			LFAsuperior			LFAulna			LLEL			LMEL			LMT5			LPSI			LTB1			LTB2			LTB3			LTH1			LTH2			LTH3			LTOE			LUA1			LUA2			LUA3			RACR			RASI			RCAL			RFAradius			RFAsuperior			RFAulna			RLEL			RMEL			RMT5			RPSI			RTB1			RTB2			RTB3			RTH1			RTH2			RTH3			RTOE			RUA1			RUA2			RUA3		
		X1	Y1	Z1	X2	Y2	Z2	X3	Y3	Z3	X4	Y4	Z4	X5	Y5	Z5	X6	Y6	Z6	X7	Y7	Z7	X8	Y8	Z8	X9	Y9	Z9	X10	Y10	Z10	X11	Y11	Z11	X12	Y12	Z12	X13	Y13	Z13	X14	Y14	Z14	X15	Y15	Z15	X16	Y16	Z16	X17	Y17	Z17	X18	Y18	Z18	X19	Y19	Z19	X20	Y20	Z20	X21	Y21	Z21	X22	Y22	Z22	X23	Y23	Z23	X24	Y24	Z24	X25	Y25	Z25	X26	Y26	Z26	X27	Y27	Z27	X28	Y28	Z28	X29	Y29	Z29	X30	Y30	Z30	X31	Y31	Z31	X32	Y32	Z32	X33	Y33	Z33	X34	Y34	Z34	X35	Y35	Z35	X36	Y36	Z36	X37	Y37	Z37	X38	Y38	Z38	X39	Y39	Z39	X40	Y40	Z40	X41	Y41	Z41	X42	Y42	Z42

1	0.43	0.744612	1.52793	-0.356768	0.858326	1.45167	-0.30484	0.837908	1.50175	-0.507749	0.83496	1.03121	-0.46343	0.249365	0.377246	-0.414453	1.00052	1.18891	-0.465806	0.905509	1.18493	-0.596151	1.01641	1.12563	-0.495526	0.810235	1.18866	-0.653134	0.761983	1.17511	-0.59203	0.220858	0.18648	-0.456685	0.660643	1.06079	-0.387257	0.537636	0.402206	-0.402185	0.441612	0.399052	-0.467148	0.39714	0.329261	-0.408145	0.718749	0.83845	-0.502233	0.753797	0.699259	-0.476218	0.662568	0.602282	-0.464023	0.262163	0.154281	-0.367538	0.816675	1.41488	-0.589672	0.759879	1.33406	-0.580831	0.790006	1.2733	-0.631232	0.783289	1.52239	-0.185354	0.82715	1.03942	-0.207042	0.916671	0.090671	-0.299983	0.762862	1.10794	-0.0662901	0.633529	1.20396	-0.0671076	0.706047	1.06284	-0.0708468	0.555212	1.27442	-0.100181	0.568767	1.26347	-0.180939	1.09417	0.0954153	-0.224305	0.661569	1.05579	-0.291042	0.976344	0.412275	-0.27737	0.966552	0.352556	-0.21531	0.995627	0.246406	-0.290292	0.767936	0.838529	-0.156676	0.879328	0.754024	-0.16414	0.851467	0.625442	-0.201717	1.13753	0.132611	-0.311328	0.697959	1.46996	-0.118274	0.629434	1.41519	-0.169369	0.624756	1.36194	-0.112224
2	0.44	0.745719	1.52206	-0.354616	0.859302	1.44433	-0.30441	0.838247	1.49494	-0.506476	0.833749	1.02627	-0.464915	0.259613	0.391495	-0.41622	0.997771	1.17635	-0.467234	0.902179	1.1761	-0.597918	1.0115	1.11299	-0.497595	0.806581	1.18317	-0.653945	0.75806	1.1701	-0.592637	0.220304	0.203215	-0.459411	0.659725	1.05155	-0.387054	0.549089	0.396923	-0.40255	0.45362	0.400033	-0.46785	0.40425	0.33415	-0.409054	0.726624	0.831007	-0.502285	0.762265	0.692007	-0.476347	0.674906	0.592683	-0.464771	0.259929	0.168067	-0.370801	0.816138	1.40894	-0.588989	0.758382	1.32892	-0.580528	0.787674	1.26804	-0.63149	0.786471	1.515	-0.183969	0.826534	1.03421	-0.206585	0.898095	0.0920561	-0.302903	0.77093	1.10232	-0.0636953	0.640439	1.19635	-0.0632127	0.715001	1.05626	-0.067678	0.560637	1.26555	-0.095387	0.573176	1.25442	-0.176264	1.07301	0.0826085	-0.225505	0.66035	1.04769	-0.292297	0.971092	0.403151	-0.278994	0.959768	0.344667	-0.218494	0.983884	0.237322	-0.292502	0.76849	0.830316	-0.159287	0.882974	0.750893	-0.16545	0.853024	0.62053	-0.202831	1.12011	0.113242	-0.312625	0.702	1.46225	-0.115233	0.632723	1.40707	-0.1651	0.629607	1.35339	-0.108152
3	0.45	0.74664	1.51508	-0.352705	0.860484	1.43584	-0.30415	0.838503	1.48711	-0.505284	0.832944	1.02008	-0.466467	0.272183	0.404097	-0.416724	0.994499	1.16189	-0.469455	0.898131	1.16609	-0.600038	1.00614	1.09873	-0.500928	0.802345	1.17669	-0.655262	0.753238	1.16418	-0.593082	0.224631	0.218708	-0.462981	0.65946	1.04094	-0.387046	0.562154	0.391983	-0.403233	0.468336	0.400605	-0.469689	0.41408	0.338652	-0.40964	0.732897	0.822344	-0.503443	0.770336	0.684198	-0.477539	0.687855	0.582587	-0.466526	0.261879	0.180442	-0.374182	0.815363	1.40175	-0.588885	0.7567	1.32265	-0.580611	0.784987	1.26157	-0.632102	0.789615	1.50681	-0.182566	0.825456	1.02781	-0.206025	0.87593	0.0938424	-0.305593	0.779684	1.09598	-0.0609549	0.647972	1.18782	-0.058822	0.724725	1.04892	-0.0641645	0.566634	1.2556	-0.0898248	0.577893	1.24437	-0.170843	1.04893	0.070962	-0.226339	0.65863	1.03845	-0.293151	0.966593	0.394337	-0.282003	0.951537	0.335832	-0.222337	0.969386	0.227165	-0.292872	0.769158	0.822706	-0.161993	0.885517	0.74718	-0.168445	0.853153	0.614556	-0.204547	1.09858	0.0952647	-0.31331	0.706209	1.45351	-0.112084	0.63588	1.39798	-0.160375	0.6348	1.34383	-0.103553
4	0.46	0.747298	1.50719	-0.350974	0.861865	1.42651	-0.303983	0.838512	1.47857	-0.504395	0.832433	1.01273	-0.467795	0.286707	0.41478	-0.415887	0.990617	1.1457	-0.472326	0.89322	1.1551	-0.602155	1.00021	1.08303	-0.505508	0.797396	1.16936	-0.656897	0.747545	1.1575	-0.593334	0.233524	0.232253	-0.466883	0.659379	1.02923	-0.387554	0.57678	0.38767	-0.403974	0.485198	0.400868	-0.472644	0.426368	0.342387	-0.409996	0.738079	0.812489	-0.50516	0.778165	0.675871	-0.479402	0.701174	0.571815	-0.468687	0.267833	0.190851	-0.377543	0.814	1.39346	-0.589288	0.754594	1.31527	-0.581008	0.781788	1.25398	-0.632902	0.792536	1.49819	-0.180975	0.82384	1.02042	-0.205331	0.851164	0.0955265	-0.30766	0.789159	1.08898	-0.0580818	0.656122	1.17843	-0.0539422	0.735111	1.04094	-0.0602935	0.573252	1.24467	-0.0835568	0.583067	1.23344	-0.164778	1.02303	0.0624438	-0.226833	0.656352	1.02808	-0.293614	0.962708	0.386909	-0.286054	0.942693	0.327778	-0.226361	0.953194	0.217096	-0.292063	0.769573	0.816556	-0.163853	0.885918	0.742681	-0.171674	0.852394	0.608323	-0.206571	1.07433	0.0813901	-0.313754	0.710609	1.44367	-0.108803	0.63893	1.3879	-0.155128	0.640306	1.33323	-0.0984514
5	0.47	0.74772	1.49906	-0.349334	0.863303	1.41704	-0.303779	0.837964	1.46987	-0.504147	0.831996	1.00438	-0.468474	0.302936	0.423228	-0.413803	0.98602	1.12815	-0.47578	0.887261	1.14339	-0.604129	0.993426	1.06615	-0.511262	0.791461	1.1615	-0.658462	0.740991	1.15037	-0.593314	0.246785	0.243014	-0.47019	0.658922	1.01718	-0.389115	0.593017	0.384141	-0.404502	0.503343	0.400854	-0.476257	0.440766	0.344854	-0.410305	0.743129	0.801889	-0.506617	0.786091	0.667424	-0.481409	0.714647	0.560545	-0.470475	0.27767	0.198758	-0.380857	0.811611	1.38448	-0.589989	0.751656	1.30696	-0.581477	0.777832	1.24563	-0.633599	0.794936	1.48976	-0.179082	0.821695	1.01281	-0.204353	0.824705	0.096712	-0.30887	0.799348	1.08143	-0.055141	0.664918	1.16832	-0.0486212	0.746095	1.03247	-0.0561324	0.580594	1.23295	-0.0767409	0.588835	1.22175	-0.158224	0.996058	0.0583562	-0.227109	0.653588	1.01727	-0.293847	0.95836	0.381812	-0.290351	0.933631	0.322567	-0.229815	0.936376	0.209083	-0.291526	0.769547	0.812665	-0.164126	0.883865	0.737807	-0.17344	0.85158	0.603288	-0.208207	1.04876	0.073509	-0.314312	0.715312	1.43283	-0.105439	0.642055	1.37688	-0.149233	0.646221	1.32172	-0.0929083
6	0.48	0.748048	1.49168	-0.347794	0.864531	1.40828	-0.303502	0.836561	1.46163	-0.504715	0.831344	0.995239	-0.468403	0.320906	0.429222	-0.410779	0.980559	1.10958	-0.479952	0.880114	1.1312	-0.606259	0.985375	1.04832	-0.518026	0.784268	1.15355	-0.659496	0.733565	1.14318	-0.592928	0.26421	0.250687	-0.472369	0.657861	1.00605	-0.391896	0.610983	0.381198	-0.404759	0.522159	0.400384	-0.479589	0.457103	0.345822	-0.410693	0.748684	0.791505	-0.507314	0.794476	0.659645	-0.483215	0.728322	0.54966	-0.471502	0.291318	0.204014	-0.384327	0.807995	1.37547	-0.590677	0.747556	1.29819	-0.581589	0.772883	1.23716	-0.633873	0.796603	1.48207	-0.177067	0.819223	1.00621	-0.20293	0.796866	0.0974428	-0.309457	0.810169	1.07355	-0.0522576	0.674464	1.15774	-0.0430262	0.757727	1.02369	-0.0518464	0.58879	1.22074	-0.0696197	0.595151	1.20943	-0.151294	0.968012	0.0576974	-0.227299	0.65061	1.00758	-0.294252	0.951873	0.378753	-0.294083	0.923478	0.320532	-0.232125	0.918958	0.204611	-0.292497	0.769436	0.810926	-0.163233	0.880533	0.733428	-0.173542	0.850821	0.600262	-0.208904	1.02217	0.0704067	-0.314849	0.720408	1.42149	-0.102195	0.645512	1.36522	-0.142637	0.652807	1.3097	-0.0870763
7	0.49	0.748364	1.48574	-0.346495	0.865338	1.40092	-0.303306	0.834229	1.45434	-0.505919	0.830163	0.985768	-0.468073	0.340588	0.432683	-0.407205	0.973987	1.09021	-0.485015	0.871679	1.1188	-0.608803	0.975613	1.02978	-0.525551	0.775724	1.14604	-0.659613	0.725377	1.13638	-0.592111	0.284934	0.255679	-0.473898	0.65625	0.997259	-0.395287	0.63071	0.378502	-0.404849	0.541598	0.399192	-0.481687	0.475394	0.345427	-0.411133	0.754465	0.782427	-0.507315	0.803506	0.653305	-0.484733	0.742448	0.540445	-0.471887	0.308563	0.2067	-0.388101	0.803247	1.36725	-0.591056	0.742257	1.28981	-0.580844	0.766767	1.22941	-0.633435	0.797603	1.4754	-0.175332	0.816748	1.00151	-0.201188	0.767891	0.097992	-0.309802	0.821597	1.06565	-0.0495792	0.684974	1.14712	-0.0374697	0.770086	1.01494	-0.0476064	0.597998	1.20846	-0.0624352	0.601919	1.19667	-0.14402	0.938898	0.0582691	-0.22745	0.64773	1.00061	-0.295234	0.942141	0.376406	-0.296777	0.910814	0.319922	-0.233161	0.900107	0.203564	-0.294985	0.769574	0.810361	-0.162277	0.877255	0.729934	-0.173164	0.848965	0.598447	-0.208908	0.994232	0.0692587	-0.314944	0.72575	1.41058	-0.0993657	0.649465	1.3535	-0.135541	0.66032	1.2979	-0.0812307
8	0.5	0.748536	1.4813	-0.345556	0.865682	1.39519	-0.303448	0.831178	1.4483	-0.507313	0.828255	0.976876	-0.468258	0.361567	0.433712	-0.403496	0.966002	1.07022	-0.490967	0.861918	1.10684	-0.61148	0.963813	1.01093	-0.533545	0.765963	1.13955	-0.658612	0.716778	1.13036	-0.590798	0.307505	0.258642	-0.475816	0.654176	0.991586	-0.398219	0.652059	0.375882	-0.404869	0.561949	0.397182	-0.482075	0.495647	0.343978	-0.41148	0.759397	0.775307	-0.506932	0.813071	0.648713	-0.486053	0.757188	0.533817	-0.471934	0.329072	0.206913	-0.391919	0.797614	1.36049	-0.590951	0.73605	1.28275	-0.578889	0.759394	1.22306	-0.632091	0.798307	1.46968	-0.174178	0.814562	0.998617	-0.199654	0.738282	0.0985948	-0.310014	0.833743	1.05818	-0.0472498	0.696705	1.13711	-0.0323168	0.783204	1.00668	-0.0435282	0.608357	1.19664	-0.0553204	0.60924	1.18397	-0.136432	0.90913	0.0585289	-0.22751	0.645116	0.996935	-0.296761	0.92923	0.373422	-0.298299	0.894934	0.318367	-0.233269	0.878971	0.204207	-0.297806	0.769436	0.809778	-0.161924	0.87397	0.7268	-0.173361	0.844294	0.59609	-0.209156	0.964904	0.0682551	-0.314535	0.730885	1.40104	-0.0971654	0.653899	1.34237	-0.128515	0.668739	1.28719	-0.0757158
9	0.51	0.748295	1.47795	-0.344884	0.865643	1.39094	-0.30406	0.827764	1.44365	-0.508486	0.825741	0.969794	-0.469325	0.383112	0.432572	-0.400149	0.956391	1.05013	-0.497585	0.850938	1.0963	-0.613608	0.949854	0.992476	-0.541736	0.755223	1.13458	-0.656514	0.708203	1.12547	-0.588878	0.330987	0.259661	-0.478526	0.651739	0.988652	-0.399979	0.674755	0.373413	-0.404838	0.583333	0.394561	-0.480884	0.5177	0.341756	-0.411595	0.762303	0.770091	-0.506179	0.822825	0.645726	-0.487321	0.772425	0.529814	-0.471813	0.352621	0.204813	-0.395199	0.791349	1.35553	-0.590335	0.729387	1.27764	-0.575702	0.750802	1.21844	-0.629816	0.799193	1.46478	-0.173585	0.812814	0.996641	-0.198947	0.708472	0.0993619	-0.309904	0.846711	1.05163	-0.0454218	0.709734	1.1284	-0.0278174	0.797071	0.99946	-0.0397238	0.619836	1.18597	-0.048293	0.617335	1.17211	-0.128672	0.879084	0.058256	-0.22735	0.642771	0.995803	-0.29828	0.913897	0.369235	-0.298767	0.876301	0.314623	-0.233104	0.855244	0.204326	-0.299571	0.767754	0.808438	-0.161984	0.869329	0.72318	-0.174126	0.835903	0.592225	-0.210341	0.934699	0.0674241	-0.314147	0.735316	1.39346	-0.0956168	0.658676	1.33235	-0.122419	0.677646	1.27822	-0.0708336
